<?xml version="1.0" encoding="utf-8"?>
<!-- Generator: Adobe Illustrator 26.0.1, SVG Export Plug-In . SVG Version: 6.00 Build 0)  -->
<svg version="1.1" id="Layer_1" xmlns="http://www.w3.org/2000/svg" xmlns:xlink="http://www.w3.org/1999/xlink" x="0px" y="0px"
	 viewBox="0 0 607.6 958.9" style="enable-background:new 0 0 607.6 958.9;" xml:space="preserve">
<path d="M529.1,269.7C445.5,247,357.6,249.1,271.5,248c-3.1,0-6.2-2.5-7.1-5.5c-11.6-42.2-4-160.7,4-214.4c0.3-2.4-3.1-3.4-4-1.2
	c-15.8,37-22.1,82.2-25.4,135.7c-1.6,25.7-1.4,52.4,1.3,78.6c0.4,3.8-2.5,7.2-6.5,7.3c-59.8,2.3-142,18.8-171.7,90
	c-0.1,0.1-0.1,0.3-0.2,0.4c-22.4,58.3,44.4,104.6,85.9,132.8c3.1,2.1,3.8,6.2,1.7,9.4C127.7,513,122,550,144.2,584.4
	c10.5,18,24.6,33.2,40.4,45.8c3.9,3.1,3.6,8.5,2.5,12.8c-1.6,6.5-3.9,12.6-5.3,19c-2.5,12.6-3.2,25.7-0.7,38.3
	c3.1,15.6,10.9,29.8,20.7,42.2c14.6,18.4,34,32.9,55.7,41.8c9.5,3.9,7.7,10.4,2.2,17.4c-0.3,0.3-0.5,0.7-0.7,1.1
	c-31.6,55.3,54.1,120.8,108.7,126.5c3.9,0.4,5.1-5.1,1.5-6.5l-27.6-13.7c-28.5-19.4-63.9-44.3-65.5-79.2c-1.9-34.5,9.4-31.6,33-27.1
	c0.2,0,0.6,0.1,0.7,0.1c22,2.6,44.4,7.5,66.5,1.8c16.3-4.2,32.8-16.6,38.3-33c1.1-3.2,1.6-6.8,0.7-10.1c-2.5-9-13.8-14.5-22.1-16.9
	c-19.6-5.7-40.2-4.3-59.7,1.1c-18.1,5.1-35,17.3-54.5,14.2c-11.6-1.8-22.1-7.9-31.6-14.7c-9.3-6.7-18.3-13.9-25.9-22.3
	c-5.7-6.3-10.5-13.5-14.4-21.2c-4.2-8.3-7.2-17.3-7.5-26.6c-0.3-7.6,1.6-24.4,10.4-27.2c2.9-1,5.3,0.3,7.7,1.6
	c4.4,2.3,8.8,4.6,13.4,6.6c9.1,3.9,18.6,7,28.4,9.3c23.1,5.5,47,7.1,70.7,7.3c21.6,0.2,43.4-0.5,64.1-6.5
	c12.2-3.5,23.9-8.8,34.3-16.2c11.2-8.1,18.8-18.1,24.8-30.6c1.8-3.8,3.5-7.9,3.9-12.2c0.6-7.2-2.5-14.5-9.1-17.8
	c-0.3-0.2-0.6-0.3-1.1-0.4c-37.7-12.9-102.7-9-136.2-5.7c-12.6,1.2-40.5,5.9-52.4,9.7c-34.7,11.1-45.4,6.6-49.5,4.6
	c-11.4-5.4-20.6-19.4-32.3-34.8c-23.9-39.6-19.5-82.5,19-71.8c0.4,0.1,0.7,0.3,1.2,0.5c75.4,26.6,216.2,55.7,283.6-16.8
	c4-4.3,5.4-9.1,5.4-9.7c2.4-43.4-114.4-41.2-138-43.1c-0.2,0-0.3,0-0.5,0c-54.4,0-111.2,0.2-161.3,23.4c-1.9,0.8-4.2,0.8-6-0.2
	c-40.4-22-104.5-67-73.4-121.1c13.1-22.9,38.2-36.6,63.7-43.2c15.7-4,69.6-13,75.5,9.9c9.6,37.6,28.4,76.9,67.2,90.7
	c65,28.9,146.4,27.9,206.7-12.7c0.2-0.1,0.4-0.3,0.5-0.4C553.2,340.8,592.5,284.4,529.1,269.7z M318.9,772.4
	c0.5-0.6,1.5-1.2,2.9-1.8c10.7-4.4,21.9-8,33.3-9.5c9.8-1.3,20-1.1,29.6,1.3c8.9,2.1,10.7,10.7,2.1,15.1c-8.1,4.2-17.6,6.7-26.8,7.3
	c-9.6,0.6-19.6-0.1-28.8-2.6C327.8,781.1,315,776.5,318.9,772.4z M271.4,612.3c1-0.2,1.9-0.4,2.9-0.7c14.7-3.4,29.7-5,44.8-6.1
	c34.3-2.8,69.1-3.5,103,2.8c0.6,0.1,1.3,0.4,1.8,0.8c6.1,5.1-1.7,12.9-5.4,16.5c-4.1,3.9-9.1,7-14.4,9.2c-9.3,3.9-19.4,5.5-29.3,7
	c-31.1,4.7-62.7,8.3-93.7,0.6c-1.5-0.4-3.1-0.7-4.6-1.2c-6.5-1.8-12.8-4.1-18.9-7c-4.3-2-13-5.2-7.5-12.4c0.6-0.7,1.4-1.5,2.2-2
	C258.2,616.3,264.7,614,271.4,612.3z M233.8,460.5c40.5-13.8,159.9-18.9,213.2,1.6c17.1,6.6,2.3,17.5-10.3,22.3
	c-63.5,24.8-148.1,14.9-204.4-13.1C231.1,470.5,224,463.7,233.8,460.5z M522,345.7c-31,32.5-191.3,47-234.2-22.2
	c-0.1-0.1-0.2-0.2-0.3-0.3c-9-15.5-10.9-22.5-12.7-33.7c-0.6-4.1,2.3-7.9,6.6-8.3c9.7-0.6,23.4,0.2,32.4,1c0.2,0,0.4,0,0.6,0
	c38.3,3.5,158.5-0.3,208.2,26.5C537.4,316.6,534.7,332.4,522,345.7z"/>
</svg>
