<?xml version="1.0" encoding="utf-8"?>
<!-- Generator: Adobe Illustrator 25.4.2, SVG Export Plug-In . SVG Version: 6.00 Build 0)  -->
<svg version="1.1" id="Ebene_4" xmlns="http://www.w3.org/2000/svg" xmlns:xlink="http://www.w3.org/1999/xlink" x="0px" y="0px"
	 viewBox="0 0 1728.1 171.4" style="enable-background:new 0 0 1728.1 171.4;" xml:space="preserve">
<style type="text/css">
	.st0{fill:none;stroke:#B3163B;stroke-width:4;stroke-miterlimit:10;}
	.st1{fill:none;stroke:#B3163B;stroke-width:7;stroke-miterlimit:10;}
</style>
<path class="st0" d="M881.5,109.9c2.2,1.5,4.2,5.9,4.5,9.8c0.3,4.1,1,8.1,2,12c0.8,2.7,4.4,6.6,7.9,8.7s6.7,6,7.1,8.7
	s2.4,4.8,4.6,4.8s7.1,1.8,10.9,4l10.3,5.9c3.8,2.2,7.5,4.4,8.2,5s2-2,3-5.6c1-4.4,1.6-8.9,1.7-13.5c0-3.7,0.3-9.3,0.6-12.4
	s2.1-6.7,3.9-8.1c1.8-1.4,4.3-2,5.5-1.4c1.3,0.7,2.1,2.1,2.2,3.6c0,1.4,1.1,4.2,2.5,6.2c2.5,3.3,5.3,6.4,8.2,9.2l0.2,0.2
	c3.2,3.1,6.6,4.5,7.7,3.2s4.1-2.1,6.8-1.7s6.6,0.8,8.6,1s7.2,0.9,11.5,1.8l8.7,1.7c4.1,0.8,8.2,1.4,12.4,1.7
	c2.5,0.1,4.6-3.4,4.6-7.8v-2.3c0-3.7-0.1-7.5-0.5-11.2c-0.5-2.6-1.1-5.1-1.9-7.6c-1.1-4.1-1.7-8.2-2-12.4v-0.2
	c-0.3-4.4-0.2-9.3,0.3-10.9c0.4-1.5,1.3-2.8,2.5-3.7c0.9-0.4-1.2-3.1-4.5-5.9l-2.1-1.8c-3.6-3-7.4-5.8-11.3-8.4
	c-2.8-1.8-5-4.8-4.9-6.7s3.8-3.4,8.2-3.4h6.6c4.4,0,8.9-0.7,9.9-1.6s5.1-1.9,8.9-2.2s5.4-2.3,3.4-4.4c-2.4-2.7-4.6-5.6-6.4-8.7
	c-2-3.3-4.2-6.5-6.8-9.3c-2.8-3.4-5.1-7.3-6.7-11.4c-1.5-3.9-4.2-8.7-6.1-10.7s-6.3-4.2-10-4.9s-7.6-1.9-8.9-2.8
	c-1.9-1.6-3.5-3.5-4.7-5.7c-1.3-2.2-5.5-5-9.4-6.1c-4.9-1.3-9.9-2-15-2H959c-4.4,0-10.2,1-12.9,2.3c-3.3,1.6-6.6,3.4-9.7,5.3
	c-2.6,1.7-5.6,5.9-6.5,9.5s-0.7,8.7,0.5,11.3c1.4,3.5,2.2,7.3,2.5,11.1c0.2,3.8-0.2,7.5-1.1,11.2c-0.8,2.7-3.5,2-6-1.6l-1.9-2.8
	c-3.1-4.3-6.6-8.4-10.3-12.2l-0.6-0.6c-3.1-3.1-6.1-5.1-6.7-4.5c-0.6,0.6,1.5,3.7,4.5,6.9l0.8,0.9c3.5,3.8,6.7,7.8,9.7,12.1
	c2.3,3.4,0.6,6.2-3.8,6h-0.8c-4.9-0.2-9.6-1.3-14.1-3.1c-3.4-1.6-7.6-1.8-9.4-0.4c-2.6,1.8-5.3,3.4-8.2,4.6
	c-2.7,1.1-6.2,4.5-7.7,7.6c-1.5,3-2.5,9.1-2.2,13.4s0.9,11.4,1.3,15.8l0.4,4.3C877.2,103.6,879.3,108.4,881.5,109.9z"/>
<path class="st0" d="M840.6,109.9c-2.2,1.5-4.2,5.9-4.5,9.8c-0.3,4.1-1,8.1-2,12c-0.8,2.7-4.4,6.6-7.9,8.7s-6.7,6-7.1,8.7
	s-2.4,4.8-4.6,4.8s-7.1,1.8-10.9,4l-10.3,5.9c-3.8,2.2-7.5,4.4-8.2,5s-2-2-3-5.6c-1-4.4-1.6-8.9-1.7-13.5c0-3.7-0.3-9.3-0.6-12.4
	s-2.1-6.7-3.9-8.1c-1.8-1.4-4.3-2-5.5-1.4c-1.3,0.7-2.1,2.1-2.2,3.6c0,1.4-1.1,4.2-2.5,6.2c-2.5,3.3-5.3,6.4-8.2,9.2l-0.2,0.2
	c-3.2,3.1-6.6,4.5-7.7,3.2s-4.1-2.1-6.8-1.7s-6.6,0.8-8.6,1s-7.2,0.9-11.5,1.8L714,153c-4.1,0.8-8.2,1.4-12.4,1.7
	c-2.5,0.1-4.6-3.4-4.6-7.8v-2.3c0-3.7,0.1-7.5,0.5-11.2c0.5-2.6,1.1-5.1,1.9-7.6c1.1-4.1,1.7-8.2,2-12.4v-0.2
	c0.3-4.4,0.2-9.3-0.3-10.9c-0.4-1.5-1.3-2.8-2.5-3.7c-0.9-0.4,1.2-3.1,4.5-5.9l2.1-1.8c3.6-3,7.4-5.8,11.3-8.4
	c2.8-1.8,5-4.8,4.9-6.7s-3.8-3.4-8.2-3.4h-6.6c-4.4,0-8.9-0.7-9.9-1.6s-5.1-1.9-8.9-2.2s-5.4-2.3-3.4-4.4c2.4-2.7,4.6-5.6,6.4-8.7
	c2-3.3,4.2-6.5,6.8-9.3c2.8-3.4,5.1-7.3,6.7-11.4c1.5-3.9,4.2-8.7,6.1-10.7s6.3-4.2,10-4.9s7.6-1.9,8.9-2.8c1.9-1.6,3.5-3.5,4.7-5.7
	c1.3-2.2,5.5-5,9.4-6.1c4.9-1.3,9.9-2,15-2h4.7c4.4,0,10.2,1,12.9,2.3c3.3,1.6,6.6,3.4,9.7,5.3c2.6,1.7,5.6,5.9,6.5,9.5
	s0.7,8.7-0.5,11.3c-1.4,3.5-2.2,7.3-2.5,11.1c-0.2,3.8,0.2,7.5,1.1,11.2c0.8,2.7,3.5,2,6-1.6l1.9-2.8c3.1-4.3,6.6-8.4,10.3-12.2
	l0.6-0.6c3.1-3.1,6.1-5.1,6.7-4.5c0.6,0.6-1.5,3.7-4.5,6.9l-0.8,0.9c-3.5,3.8-6.7,7.8-9.7,12.1c-2.3,3.4-0.6,6.2,3.8,6h0.8
	c4.9-0.2,9.6-1.3,14.1-3.1c3.4-1.6,7.6-1.8,9.4-0.4c2.6,1.8,5.3,3.4,8.2,4.6c2.7,1.1,6.2,4.5,7.7,7.6c1.5,3,2.5,9.1,2.2,13.4
	s-1,11-1.3,15.4l-0.4,4.3C844.9,103.6,842.8,108.4,840.6,109.9z"/>
<line class="st1" x1="623.1" y1="91.2" x2="0" y2="91.2"/>
<line class="st1" x1="1728.1" y1="91.2" x2="1103.1" y2="91.2"/>
</svg>
