<svg id="Ebene_4" data-name="Ebene 4" xmlns="http://www.w3.org/2000/svg" viewBox="0 0 1920 217.71277"><defs><style>.cls-1,.cls-2{fill:none;stroke:#b3163b;stroke-miterlimit:10;}.cls-1{stroke-width:4px;}.cls-2{stroke-width:7px;}</style></defs><path class="cls-1" d="M978.40329,123.05394c2.20562,1.4557,4.22677,5.85892,4.49144,9.78492a64.34182,64.34182,0,0,0,2.00511,12.03064c.83813,2.69085,4.41123,6.62487,7.94022,8.74226s6.70508,6.01533,7.058,8.66207,2.41014,4.81225,4.57164,4.81225,7.05823,1.78164,10.88162,3.9592l10.31848,5.87675c3.82338,2.17755,7.52908,4.42838,8.23487,5.00184s2.0412-1.953,2.96756-5.61429a66.25476,66.25476,0,0,0,1.68429-13.47432c0-3.74955.28874-9.3438.64164-12.43167s2.1214-6.73315,3.93-8.10063,4.26286-2.01714,5.4539-1.44368a4.33662,4.33662,0,0,1,2.16551,3.6092c0,1.41159,1.11885,4.20872,2.48633,6.21583a78.56772,78.56772,0,0,0,8.24087,9.20675l.20076.19389c3.165,3.0566,6.62074,4.4747,7.67943,3.15133s4.12651-2.0813,6.81737-1.68429,6.55269.83011,8.58185.96245,7.22127.93769,11.538,1.78968l8.68492,1.71412a101.346,101.346,0,0,0,12.42024,1.70948c2.5144.08822,4.57164-3.43959,4.57164-7.83959v-2.28658a107.79421,107.79421,0,0,0-.48123-11.20817,58.37535,58.37535,0,0,0-1.9249-7.61941,65.32371,65.32371,0,0,1-1.99681-12.39209l-.0166-.23955c-.30422-4.38947-.15612-9.28016.32912-10.86821a6.88525,6.88525,0,0,1,2.48633-3.6894c.88225-.44112-1.16151-3.1067-4.54168-5.92351l-2.14523-1.7877a138.46746,138.46746,0,0,0-11.27884-8.40985c-2.8232-1.8086-5.0248-4.80423-4.89247-6.657s3.84062-3.36858,8.24062-3.36858h6.6176c4.4,0,8.86621-.72184,9.92491-1.60409s5.0649-1.89282,8.90267-2.24572,5.37168-2.3199,3.40868-4.37113a51.84278,51.84278,0,0,1-6.37624-8.74227,60.32276,60.32276,0,0,0-6.77726-9.34379,43.15725,43.15725,0,0,1-6.69706-11.42911c-1.49982-3.90395-4.2428-8.74026-6.09552-10.74738s-6.34616-4.19067-9.98543-4.85235-7.64548-1.90686-8.90268-2.76705a21.39936,21.39936,0,0,1-4.69195-5.6544c-1.32337-2.24973-5.54612-5.01077-9.3839-6.13563A64.17589,64.17589,0,0,0,1060.71331,15.5h-4.6927c-4.4,0-10.21966,1.02862-12.93257,2.28582a107.81542,107.81542,0,0,0-9.74482,5.29348c-2.64674,1.65422-5.57018,5.93111-6.49654,9.50421s-.70981,8.66206.48122,11.3088a37.70858,37.70858,0,0,1,2.52644,11.06819,39.93776,39.93776,0,0,1-1.08276,11.1885c-.794,2.71291-3.50213,1.97913-6.018-1.63062l-1.91951-2.75408a103.21577,103.21577,0,0,0-10.288-12.16261l-.60324-.59117c-3.14253-3.07969-6.1468-5.11219-6.67615-4.51667s1.50643,3.70279,4.524,6.90507l.81721.86724a114.94794,114.94794,0,0,1,9.69713,12.07824c2.3159,3.44077.61219,6.15312-3.786,6.02746l-.84943-.02427a42.60534,42.60534,0,0,1-14.13236-3.11583c-3.37459-1.588-7.59735-1.75046-9.3839-.36092a42.86814,42.86814,0,0,1-8.18084,4.57164c-2.71291,1.12487-6.17773,4.53555-7.69961,7.57931s-2.49636,9.05306-2.16551,13.354.90049,11.40748,1.26589,15.79228l.35557,4.26675C974.09412,116.81963,976.19768,121.59823,978.40329,123.05394Z"/><path class="cls-1" d="M937.571,123.05394c-2.20562,1.4557-4.22677,5.85892-4.49144,9.78492a64.34182,64.34182,0,0,1-2.00511,12.03064c-.83813,2.69085-4.41123,6.62487-7.94022,8.74226s-6.70508,6.01533-7.058,8.66207-2.41014,4.81225-4.57164,4.81225-7.05823,1.78164-10.88162,3.9592L890.30455,176.922c-3.82338,2.17755-7.52907,4.42838-8.23487,5.00184s-2.0412-1.953-2.96756-5.61429a66.25476,66.25476,0,0,1-1.68429-13.47432c0-3.74955-.28873-9.3438-.64163-12.43167s-2.12141-6.73315-3.93-8.10063-4.26286-2.01714-5.45389-1.44368a4.33661,4.33661,0,0,0-2.16552,3.6092c0,1.41159-1.11885,4.20872-2.48633,6.21583a78.5668,78.5668,0,0,1-8.24087,9.20675l-.20076.19389c-3.165,3.0566-6.62074,4.4747-7.67943,3.15133s-4.12651-2.0813-6.81737-1.68429-6.55268.83011-8.58185.96245-7.22127.93769-11.538,1.78968l-8.68492,1.71412a101.34608,101.34608,0,0,1-12.42023,1.70948c-2.51441.08822-4.57165-3.43959-4.57165-7.83959v-2.28658a107.79421,107.79421,0,0,1,.48123-11.20817,58.37535,58.37535,0,0,1,1.9249-7.61941,65.3229,65.3229,0,0,0,1.99681-12.39209l.0166-.23955c.30422-4.38947.15612-9.28016-.32912-10.86821a6.88519,6.88519,0,0,0-2.48633-3.6894c-.88225-.44112,1.16151-3.1067,4.54168-5.92351l2.14523-1.7877a138.46922,138.46922,0,0,1,11.27885-8.40985c2.82319-1.8086,5.02479-4.80423,4.89246-6.657s-3.84062-3.36858-8.24062-3.36858h-6.6176c-4.4,0-8.86621-.72184-9.9249-1.60409s-5.0649-1.89282-8.90268-2.24572-5.37168-2.3199-3.40868-4.37113a51.84278,51.84278,0,0,0,6.37624-8.74227,60.32276,60.32276,0,0,1,6.77726-9.34379A43.15725,43.15725,0,0,0,801.22377,47.702c1.49982-3.90395,4.2428-8.74026,6.09552-10.74738s6.34617-4.19067,9.98543-4.85235,7.64548-1.90686,8.90268-2.76705a21.39936,21.39936,0,0,0,4.692-5.6544c1.32337-2.24973,5.54613-5.01077,9.3839-6.13563A64.17589,64.17589,0,0,1,855.261,15.5h4.69271c4.4,0,10.21965,1.02862,12.93256,2.28582a107.81542,107.81542,0,0,1,9.74482,5.29348c2.64674,1.65422,5.57019,5.93111,6.49654,9.50421s.70981,8.66206-.48122,11.3088A37.7089,37.7089,0,0,0,886.12,54.9605a39.93776,39.93776,0,0,0,1.08276,11.1885c.794,2.71291,3.50213,1.97913,6.018-1.63062l1.91951-2.75408a103.21769,103.21769,0,0,1,10.288-12.16261l.60324-.59117c3.14253-3.07969,6.1468-5.11219,6.67615-4.51667s-1.50643,3.70279-4.524,6.90507l-.81721.86724a114.94794,114.94794,0,0,0-9.69713,12.07824c-2.3159,3.44077-.61219,6.15312,3.786,6.02746l.84943-.02427a42.60529,42.60529,0,0,0,14.13236-3.11583c3.3746-1.588,7.59735-1.75046,9.3839-.36092a42.86814,42.86814,0,0,0,8.18084,4.57164c2.71291,1.12487,6.17773,4.53555,7.69961,7.57931s2.49636,9.05306,2.16551,13.354-.90049,11.40748-1.26589,15.79228l-.35556,4.26675C941.88022,116.81963,939.77666,121.59823,937.571,123.05394Z"/><line class="cls-2" x1="720" y1="104.35106" x2="96.93617" y2="104.35106"/><line class="cls-2" x1="1825.04255" y1="104.35106" x2="1200" y2="104.35106"/></svg>