<?xml version="1.0" encoding="utf-8"?>
<!-- Generator: Adobe Illustrator 25.4.2, SVG Export Plug-In . SVG Version: 6.00 Build 0)  -->
<svg version="1.1" id="Ebene_4" xmlns="http://www.w3.org/2000/svg" xmlns:xlink="http://www.w3.org/1999/xlink" x="0px" y="0px"
	 viewBox="0 0 1432.5 263.9" style="enable-background:new 0 0 1432.5 263.9;" xml:space="preserve">
<style type="text/css">
	.st0{fill:none;stroke:#B3163B;stroke-width:7;stroke-miterlimit:10;}
	.st1{fill:none;stroke:#B3163B;stroke-width:5;stroke-miterlimit:10;}
	.st2{fill:none;stroke:#B3163B;stroke-width:4;stroke-miterlimit:10;}
</style>
<path class="st1" d="M658.6,153.8l0.5-6.5c0.6-6.7,1.4-17.5,1.9-24.1c0.5-6.6-1-15.7-3.3-20.4c-2.3-4.6-7.6-9.8-11.7-11.6
	c-4.4-1.9-8.6-4.2-12.5-7c-2.7-2.1-9.2-1.9-14.3,0.6c-6.9,2.8-14.2,4.4-21.6,4.8l-1.3,0c-6.7,0.2-9.3-3.9-5.8-9.2
	c4.5-6.5,9.5-12.6,14.8-18.4l1.2-1.3c4.6-4.9,7.7-9.6,6.9-10.5s-5.4,2.2-10.2,6.9l-0.9,0.9c-5.7,5.8-10.9,12-15.7,18.6l-2.9,4.2
	c-3.8,5.5-8,6.6-9.2,2.5c-1.4-5.6-1.9-11.3-1.7-17.1c0.4-5.8,1.7-11.5,3.9-16.9c1.8-4,2.1-11.8,0.7-17.3s-5.9-12-9.9-14.5
	c-4.8-2.9-9.8-5.6-14.9-8.1c-4.1-1.9-13-3.5-19.7-3.5h-7.2C518.2,6,510.5,7.1,503.1,9c-5.9,1.7-12.3,5.9-14.3,9.4
	c-1.9,3.3-4.3,6.2-7.2,8.6c-1.9,1.3-8,3.2-13.6,4.2c-5.6,1-12.4,4.3-15.2,7.4c-2.8,3.1-7,10.4-9.3,16.4c-2.5,6.3-5.9,12.2-10.2,17.4
	c-3.9,4.4-7.4,9.2-10.3,14.3c-2.8,4.8-6,9.2-9.7,13.3c-3,3.1-0.7,6.1,5.2,6.7c5.9,0.5,12,2.1,13.6,3.4c1.6,1.3,8.4,2.4,15.1,2.4
	h10.1c6.7,0,12.4,2.3,12.6,5.1c0.2,2.8-3.2,7.4-7.5,10.2c-5.9,4-11.7,8.3-17.2,12.8l-3.3,2.7c-5.2,4.3-8.3,8.4-6.9,9
	c1.9,1.4,3.2,3.4,3.8,5.6c0.7,2.4,1,9.9,0.5,16.6l0,0.4c-0.4,6.4-1.4,12.7-3,18.9c-1.2,3.8-2.2,7.7-2.9,11.6
	c-0.5,5.7-0.8,11.4-0.7,17.1v3.5c0,6.7,3.1,12.1,7,12c6.4-0.5,12.7-1.3,18.9-2.6l13.2-2.6c6.6-1.3,14.5-2.5,17.6-2.7
	c3.1-0.2,9-0.9,13.1-1.5c4.1-0.6,8.8,0.6,10.4,2.6c1.6,2,6.9-0.1,11.7-4.8l0.3-0.3c4.6-4.3,8.8-9,12.6-14c2.1-3.1,3.8-7.3,3.8-9.5
	c0.1-2.3,1.3-4.4,3.3-5.5c1.8-0.9,5.6,0.1,8.3,2.2s5.5,7.6,6,12.4c0.5,4.7,1,13.2,1,19c0.2,6.9,1,13.8,2.6,20.6
	c1.4,5.6,3.5,9.4,4.5,8.6c1.1-0.9,6.7-4.3,12.6-7.6l15.7-9c5.8-3.3,13.3-6,16.6-6s6.4-3.3,7-7.3c0.5-4,5.4-10,10.8-13.2
	c5.4-3.2,10.8-9.2,12.1-13.3c1.6-6,2.6-12.2,3.1-18.4c0.4-6,3.5-12.7,6.9-14.9S658.1,160.4,658.6,153.8z"/>
<path class="st1" d="M773.9,153.8l-0.5-6.5c-0.6-6.7-1.4-17.5-1.9-24.1c-0.5-6.6,1-15.7,3.3-20.4c2.3-4.6,7.6-9.8,11.7-11.6
	c4.4-1.9,8.6-4.2,12.5-7c2.7-2.1,9.2-1.9,14.3,0.6c6.9,2.8,14.2,4.4,21.6,4.8l1.3,0c6.7,0.2,9.3-3.9,5.8-9.2
	c-4.5-6.5-9.5-12.6-14.8-18.4l-1.2-1.3c-4.6-4.9-7.7-9.6-6.9-10.5s5.4,2.2,10.2,6.9l0.9,0.9c5.7,5.8,10.9,12,15.7,18.6l2.9,4.2
	c3.8,5.5,8,6.6,9.2,2.5c1.4-5.6,1.9-11.3,1.7-17.1c-0.4-5.8-1.7-11.5-3.9-16.9c-1.8-4-2.1-11.8-0.7-17.3s5.9-12,9.9-14.5
	c4.8-2.9,9.8-5.6,14.9-8.1c4.1-1.9,13-3.5,19.7-3.5h7.2c7.7,0.1,15.4,1.2,22.8,3.1c5.9,1.7,12.3,5.9,14.3,9.4
	c1.9,3.3,4.3,6.2,7.2,8.6c1.9,1.3,8,3.2,13.6,4.2c5.6,1,12.4,4.3,15.2,7.4c2.8,3.1,7,10.4,9.3,16.4c2.5,6.3,5.9,12.2,10.2,17.4
	c3.9,4.4,7.4,9.2,10.3,14.3c2.8,4.8,6,9.2,9.7,13.3c3,3.1,0.7,6.1-5.2,6.7c-5.9,0.5-12,2.1-13.6,3.4c-1.6,1.3-8.4,2.4-15.1,2.4
	h-10.1c-6.7,0-12.4,2.3-12.6,5.1s3.2,7.4,7.5,10.2c5.9,4,11.7,8.3,17.2,12.8l3.3,2.7c5.2,4.3,8.3,8.4,6.9,9
	c-1.9,1.4-3.2,3.4-3.8,5.6c-0.7,2.4-1,9.9-0.5,16.6l0,0.4c0.4,6.4,1.4,12.7,3,18.9c1.2,3.8,2.2,7.7,2.9,11.6
	c0.5,5.7,0.8,11.4,0.7,17.1v3.5c0,6.7-3.1,12.1-7,12c-6.4-0.5-12.7-1.3-18.9-2.6l-13.2-2.6c-6.6-1.3-14.5-2.5-17.6-2.7
	c-3.1-0.2-9-0.9-13.1-1.5c-4.1-0.6-8.8,0.6-10.4,2.6c-1.6,2-6.9-0.1-11.7-4.8l-0.3-0.3c-4.6-4.3-8.8-9-12.6-14
	c-2.1-3.1-3.8-7.3-3.8-9.5c-0.1-2.3-1.3-4.4-3.3-5.5c-1.8-0.9-5.6,0.1-8.3,2.2c-2.8,2.1-5.5,7.6-6,12.4c-0.5,4.7-1,13.2-1,19
	c-0.2,6.9-1,13.8-2.6,20.6c-1.4,5.6-3.5,9.4-4.5,8.6c-1.1-0.9-6.7-4.3-12.6-7.6l-15.7-9c-5.8-3.3-13.3-6-16.6-6s-6.4-3.3-7-7.3
	c-0.5-4-5.4-10-10.8-13.2c-5.4-3.2-10.8-9.2-12.1-13.3c-1.6-6-2.6-12.2-3.1-18.4c-0.4-6-3.5-12.7-6.9-14.9
	C777.6,167.7,774.4,160.4,773.9,153.8z"/>
<line class="st0" x1="1432.5" y1="132.9" x2="1078.2" y2="132.9"/>
<line class="st0" x1="354.3" y1="132.9" x2="0" y2="132.9"/>
</svg>
