<?xml version="1.0" encoding="utf-8"?>
<!-- Generator: Adobe Illustrator 25.4.2, SVG Export Plug-In . SVG Version: 6.00 Build 0)  -->
<svg version="1.1" id="Ebene_4" xmlns="http://www.w3.org/2000/svg" xmlns:xlink="http://www.w3.org/1999/xlink" x="0px" y="0px"
	 viewBox="0 0 1728.1 171.4" style="enable-background:new 0 0 1728.1 171.4;" xml:space="preserve">
<style type="text/css">
	.st0{fill:none;stroke:#B3163B;stroke-width:7;stroke-miterlimit:10;}
	.st1{fill:none;stroke:#B3163B;stroke-width:4;stroke-miterlimit:10;}
</style>
<polyline class="st0" points="1708.1,441.8 1083.1,441.8 603.1,441.8 -20,441.8 "/>
<path class="st1" d="M895.2,671.2c3.4,2.2,6.4,8.9,6.9,14.9c0.4,6.2,1.5,12.3,3.1,18.4c1.3,4.1,6.7,10.1,12.1,13.3
	c5.4,3.2,10.2,9.2,10.8,13.2c0.5,4,3.7,7.3,7,7.3s10.8,2.7,16.6,6l15.7,9c5.8,3.3,11.5,6.8,12.6,7.6c1.1,0.9,3.1-3,4.5-8.6
	c1.6-6.7,2.4-13.6,2.6-20.6c0-5.7,0.4-14.3,1-19s3.2-10.3,6-12.4s6.5-3.1,8.3-2.2c2,1.1,3.2,3.2,3.3,5.5c0,2.2,1.7,6.4,3.8,9.5
	c3.8,5,8,9.7,12.6,14l0.3,0.3c4.8,4.7,10.1,6.8,11.7,4.8s6.3-3.2,10.4-2.6c4.1,0.6,10,1.3,13.1,1.5c3.1,0.2,11,1.4,17.6,2.7
	l13.2,2.6c6.3,1.3,12.6,2.1,18.9,2.6c3.8,0.1,7-5.2,7-12v-3.5c0.1-5.7-0.2-11.4-0.7-17.1c-0.7-3.9-1.7-7.8-2.9-11.6
	c-1.6-6.2-2.6-12.5-3-18.9l0-0.4c-0.5-6.7-0.2-14.2,0.5-16.6c0.6-2.2,1.9-4.2,3.8-5.6c1.3-0.7-1.8-4.7-6.9-9l-3.3-2.7
	c-5.5-4.6-11.3-8.8-17.2-12.8c-4.3-2.8-7.7-7.3-7.5-10.2c0.2-2.8,5.9-5.1,12.6-5.1h10.1c6.7,0,13.5-1.1,15.1-2.4
	c1.6-1.3,7.7-2.9,13.6-3.4c5.9-0.5,8.2-3.5,5.2-6.7c-3.7-4.1-7-8.6-9.7-13.3c-3-5.1-6.4-9.8-10.3-14.3c-4.3-5.3-7.7-11.1-10.2-17.4
	c-2.3-6-6.5-13.3-9.3-16.4c-2.8-3.1-9.7-6.4-15.2-7.4c-5.6-1-11.7-2.9-13.6-4.2c-2.9-2.4-5.3-5.4-7.2-8.6c-2-3.4-8.5-7.6-14.3-9.4
	c-7.5-1.9-15.1-3-22.8-3.1h-7.2c-6.7,0-15.6,1.6-19.7,3.5c-5.1,2.4-10.1,5.1-14.9,8.1c-4,2.5-8.5,9-9.9,14.5
	c-1.4,5.5-1.1,13.2,0.7,17.3c2.1,5.4,3.4,11.1,3.9,16.9c0.3,5.7-0.3,11.5-1.7,17.1c-1.2,4.1-5.3,3-9.2-2.5l-2.9-4.2
	c-4.7-6.6-10-12.8-15.7-18.6l-0.9-0.9c-4.8-4.7-9.4-7.8-10.2-6.9c-0.8,0.9,2.3,5.6,6.9,10.5l1.2,1.3c5.3,5.8,10.3,12,14.8,18.4
	c3.5,5.2,0.9,9.4-5.8,9.2l-1.3,0c-7.4-0.3-14.7-2-21.6-4.8c-5.1-2.4-11.6-2.7-14.3-0.6c-3.9,2.8-8.1,5.1-12.5,7
	c-4.1,1.7-9.4,6.9-11.7,11.6s-3.8,13.8-3.3,20.4c0.5,6.6,1.4,17.4,1.9,24.1l0.5,6.5C888.6,661.6,891.8,668.9,895.2,671.2z"/>
<path class="st1" d="M832.9,671.2c-3.4,2.2-6.4,8.9-6.9,14.9c-0.4,6.2-1.5,12.3-3.1,18.4c-1.3,4.1-6.7,10.1-12.1,13.3
	s-10.2,9.2-10.8,13.2c-0.5,4-3.7,7.3-7,7.3s-10.8,2.7-16.6,6l-15.7,9c-5.8,3.3-11.5,6.8-12.6,7.6c-1.1,0.9-3.1-3-4.5-8.6
	c-1.6-6.7-2.4-13.6-2.6-20.6c0-5.7-0.4-14.3-1-19c-0.5-4.7-3.2-10.3-6-12.4c-2.8-2.1-6.5-3.1-8.3-2.2c-2,1.1-3.2,3.2-3.3,5.5
	c0,2.2-1.7,6.4-3.8,9.5c-3.8,5-8,9.7-12.6,14l-0.3,0.3c-4.8,4.7-10.1,6.8-11.7,4.8c-1.6-2-6.3-3.2-10.4-2.6
	c-4.1,0.6-10,1.3-13.1,1.5c-3.1,0.2-11,1.4-17.6,2.7l-13.2,2.6c-6.3,1.3-12.6,2.1-18.9,2.6c-3.8,0.1-7-5.2-7-12v-3.5
	c-0.1-5.7,0.2-11.4,0.7-17.1c0.7-3.9,1.7-7.8,2.9-11.6c1.6-6.2,2.6-12.5,3-18.9l0-0.4c0.5-6.7,0.2-14.2-0.5-16.6
	c-0.6-2.2-1.9-4.2-3.8-5.6c-1.3-0.7,1.8-4.7,6.9-9l3.3-2.7c5.5-4.6,11.3-8.8,17.2-12.8c4.3-2.8,7.7-7.3,7.5-10.2s-5.9-5.1-12.6-5.1
	h-10.1c-6.7,0-13.5-1.1-15.1-2.4s-7.7-2.9-13.6-3.4c-5.9-0.5-8.2-3.5-5.2-6.7c3.7-4.1,7-8.6,9.7-13.3c3-5.1,6.4-9.8,10.3-14.3
	c4.3-5.3,7.7-11.1,10.2-17.4c2.3-6,6.5-13.3,9.3-16.4c2.8-3.1,9.7-6.4,15.2-7.4c5.6-1,11.7-2.9,13.6-4.2c2.9-2.4,5.3-5.4,7.2-8.6
	c2-3.4,8.5-7.6,14.3-9.4c7.5-1.9,15.1-3,22.8-3.1h7.2c6.7,0,15.6,1.6,19.7,3.5c5.1,2.4,10.1,5.1,14.9,8.1c4,2.5,8.5,9,9.9,14.5
	c1.4,5.5,1.1,13.2-0.7,17.3c-2.1,5.4-3.4,11.1-3.9,16.9c-0.3,5.7,0.3,11.5,1.7,17.1c1.2,4.1,5.3,3,9.2-2.5l2.9-4.2
	c4.7-6.6,10-12.8,15.7-18.6l0.9-0.9c4.8-4.7,9.4-7.8,10.2-6.9c0.8,0.9-2.3,5.6-6.9,10.5l-1.2,1.3c-5.3,5.8-10.3,12-14.8,18.4
	c-3.5,5.2-0.9,9.4,5.8,9.2l1.3,0c7.4-0.3,14.7-2,21.6-4.8c5.1-2.4,11.6-2.7,14.3-0.6c3.9,2.8,8.1,5.1,12.5,7
	c4.1,1.7,9.4,6.9,11.7,11.6c2.3,4.6,3.8,13.8,3.3,20.4c-0.5,6.6-1.4,17.4-1.9,24.1L840,655C839.5,661.6,836.3,668.9,832.9,671.2z"/>
<line class="st0" x1="603.1" y1="595.9" x2="-20" y2="595.9"/>
<line class="st0" x1="1708.1" y1="595.9" x2="1083.1" y2="595.9"/>
<path class="st1" d="M881.5,109.9c2.2,1.5,4.2,5.9,4.5,9.8c0.3,4.1,1,8.1,2,12c0.8,2.7,4.4,6.6,7.9,8.7s6.7,6,7.1,8.7
	s2.4,4.8,4.6,4.8s7.1,1.8,10.9,4l10.3,5.9c3.8,2.2,7.5,4.4,8.2,5s2-2,3-5.6c1-4.4,1.6-8.9,1.7-13.5c0-3.7,0.3-9.3,0.6-12.4
	s2.1-6.7,3.9-8.1c1.8-1.4,4.3-2,5.5-1.4c1.3,0.7,2.1,2.1,2.2,3.6c0,1.4,1.1,4.2,2.5,6.2c2.5,3.3,5.3,6.4,8.2,9.2l0.2,0.2
	c3.2,3.1,6.6,4.5,7.7,3.2s4.1-2.1,6.8-1.7s6.6,0.8,8.6,1s7.2,0.9,11.5,1.8l8.7,1.7c4.1,0.8,8.2,1.4,12.4,1.7
	c2.5,0.1,4.6-3.4,4.6-7.8v-2.3c0-3.7-0.1-7.5-0.5-11.2c-0.5-2.6-1.1-5.1-1.9-7.6c-1.1-4.1-1.7-8.2-2-12.4l0-0.2
	c-0.3-4.4-0.2-9.3,0.3-10.9c0.4-1.5,1.3-2.8,2.5-3.7c0.9-0.4-1.2-3.1-4.5-5.9l-2.1-1.8c-3.6-3-7.4-5.8-11.3-8.4
	c-2.8-1.8-5-4.8-4.9-6.7s3.8-3.4,8.2-3.4h6.6c4.4,0,8.9-0.7,9.9-1.6s5.1-1.9,8.9-2.2s5.4-2.3,3.4-4.4c-2.4-2.7-4.6-5.6-6.4-8.7
	c-2-3.3-4.2-6.5-6.8-9.3c-2.8-3.4-5.1-7.3-6.7-11.4c-1.5-3.9-4.2-8.7-6.1-10.7s-6.3-4.2-10-4.9s-7.6-1.9-8.9-2.8
	c-1.9-1.6-3.5-3.5-4.7-5.7c-1.3-2.2-5.5-5-9.4-6.1c-4.9-1.3-9.9-2-15-2h-4.7c-4.4,0-10.2,1-12.9,2.3c-3.3,1.6-6.6,3.4-9.7,5.3
	c-2.6,1.7-5.6,5.9-6.5,9.5s-0.7,8.7,0.5,11.3c1.4,3.5,2.2,7.3,2.5,11.1c0.2,3.8-0.2,7.5-1.1,11.2c-0.8,2.7-3.5,2-6-1.6l-1.9-2.8
	c-3.1-4.3-6.6-8.4-10.3-12.2l-0.6-0.6c-3.1-3.1-6.1-5.1-6.7-4.5s1.5,3.7,4.5,6.9l0.8,0.9c3.5,3.8,6.7,7.8,9.7,12.1
	c2.3,3.4,0.6,6.2-3.8,6l-0.8,0c-4.9-0.2-9.6-1.3-14.1-3.1c-3.4-1.6-7.6-1.8-9.4-0.4c-2.6,1.8-5.3,3.4-8.2,4.6
	c-2.7,1.1-6.2,4.5-7.7,7.6c-1.5,3-2.5,9.1-2.2,13.4s0.9,11.4,1.3,15.8l0.4,4.3C877.2,103.6,879.3,108.4,881.5,109.9z"/>
<path class="st1" d="M840.6,109.9c-2.2,1.5-4.2,5.9-4.5,9.8c-0.3,4.1-1,8.1-2,12c-0.8,2.7-4.4,6.6-7.9,8.7s-6.7,6-7.1,8.7
	s-2.4,4.8-4.6,4.8s-7.1,1.8-10.9,4l-10.3,5.9c-3.8,2.2-7.5,4.4-8.2,5s-2-2-3-5.6c-1-4.4-1.6-8.9-1.7-13.5c0-3.7-0.3-9.3-0.6-12.4
	s-2.1-6.7-3.9-8.1c-1.8-1.4-4.3-2-5.5-1.4c-1.3,0.7-2.1,2.1-2.2,3.6c0,1.4-1.1,4.2-2.5,6.2c-2.5,3.3-5.3,6.4-8.2,9.2l-0.2,0.2
	c-3.2,3.1-6.6,4.5-7.7,3.2s-4.1-2.1-6.8-1.7s-6.6,0.8-8.6,1s-7.2,0.9-11.5,1.8l-8.7,1.7c-4.1,0.8-8.2,1.4-12.4,1.7
	c-2.5,0.1-4.6-3.4-4.6-7.8v-2.3c0-3.7,0.1-7.5,0.5-11.2c0.5-2.6,1.1-5.1,1.9-7.6c1.1-4.1,1.7-8.2,2-12.4l0-0.2
	c0.3-4.4,0.2-9.3-0.3-10.9c-0.4-1.5-1.3-2.8-2.5-3.7c-0.9-0.4,1.2-3.1,4.5-5.9l2.1-1.8c3.6-3,7.4-5.8,11.3-8.4
	c2.8-1.8,5-4.8,4.9-6.7s-3.8-3.4-8.2-3.4h-6.6c-4.4,0-8.9-0.7-9.9-1.6s-5.1-1.9-8.9-2.2s-5.4-2.3-3.4-4.4c2.4-2.7,4.6-5.6,6.4-8.7
	c2-3.3,4.2-6.5,6.8-9.3c2.8-3.4,5.1-7.3,6.7-11.4c1.5-3.9,4.2-8.7,6.1-10.7s6.3-4.2,10-4.9s7.6-1.9,8.9-2.8c1.9-1.6,3.5-3.5,4.7-5.7
	c1.3-2.2,5.5-5,9.4-6.1c4.9-1.3,9.9-2,15-2h4.7c4.4,0,10.2,1,12.9,2.3c3.3,1.6,6.6,3.4,9.7,5.3c2.6,1.7,5.6,5.9,6.5,9.5
	s0.7,8.7-0.5,11.3c-1.4,3.5-2.2,7.3-2.5,11.1c-0.2,3.8,0.2,7.5,1.1,11.2c0.8,2.7,3.5,2,6-1.6l1.9-2.8c3.1-4.3,6.6-8.4,10.3-12.2
	l0.6-0.6c3.1-3.1,6.1-5.1,6.7-4.5s-1.5,3.7-4.5,6.9l-0.8,0.9c-3.5,3.8-6.7,7.8-9.7,12.1c-2.3,3.4-0.6,6.2,3.8,6l0.8,0
	c4.9-0.2,9.6-1.3,14.1-3.1c3.4-1.6,7.6-1.8,9.4-0.4c2.6,1.8,5.3,3.4,8.2,4.6c2.7,1.1,6.2,4.5,7.7,7.6c1.5,3,2.5,9.1,2.2,13.4
	S846,90.6,845.7,95l-0.4,4.3C844.9,103.6,842.8,108.4,840.6,109.9z"/>
<line class="st0" x1="623.1" y1="91.2" x2="0" y2="91.2"/>
<line class="st0" x1="1728.1" y1="91.2" x2="1103.1" y2="91.2"/>
</svg>
