<?xml version="1.0" encoding="utf-8"?>
<!-- Generator: Adobe Illustrator 25.1.0, SVG Export Plug-In . SVG Version: 6.00 Build 0)  -->
<svg version="1.1" id="Layer_1" xmlns="http://www.w3.org/2000/svg" xmlns:xlink="http://www.w3.org/1999/xlink" x="0px" y="0px"
	 viewBox="0 0 1108.3 1080" style="enable-background:new 0 0 1108.3 1080;" xml:space="preserve">
<style type="text/css">
	.st0{fill:#FBFBFB;}
</style>
<path class="st0" d="M775.6,332.4c-79-21.4-162.1-19.4-243.4-20.5c-2.9,0-5.9-2.4-6.7-5.2c-11-39.9-3.8-151.8,3.8-202.6
	c0.3-2.3-2.9-3.2-3.8-1.1c-14.9,35-20.9,77.7-24,128.2c-1.5,24.3-1.3,49.5,1.2,74.3c0.4,3.6-2.4,6.8-6.1,6.9
	c-56.5,2.2-134.2,17.8-162.2,85c-0.1,0.1-0.1,0.3-0.2,0.4c-21.2,55.1,42,98.8,81.2,125.5c2.9,2,3.6,5.9,1.6,8.9
	c-20.7,30.1-26.1,65.1-5.1,97.6c9.9,17,23.2,31.4,38.2,43.3c3.7,2.9,3.4,8,2.4,12.1c-1.5,6.1-3.7,11.9-5,18
	c-2.4,11.9-3,24.3-0.7,36.2c2.9,14.7,10.3,28.2,19.6,39.9c13.8,17.4,32.1,31.1,52.6,39.5c9,3.7,7.3,9.8,2.1,16.4
	c-0.3,0.3-0.5,0.7-0.7,1c-29.9,52.3,51.1,114.1,102.7,119.5c3.7,0.4,4.8-4.8,1.4-6.1l-26.1-12.9c-26.9-18.3-60.4-41.9-61.9-74.8
	c-1.8-32.6,8.9-29.9,31.2-25.6c0.2,0,0.6,0.1,0.7,0.1c20.8,2.5,42,7.1,62.8,1.7c15.4-4,31-15.7,36.2-31.2c1-3,1.5-6.4,0.7-9.5
	c-2.4-8.5-13-13.7-20.9-16c-18.5-5.4-38-4.1-56.4,1c-17.1,4.8-33.1,16.3-51.5,13.4c-11-1.7-20.9-7.5-29.9-13.9
	c-8.8-6.3-17.3-13.1-24.5-21.1c-5.4-6-9.9-12.8-13.6-20c-4-7.8-6.8-16.3-7.1-25.1c-0.3-7.2,1.5-23.1,9.8-25.7c2.7-0.9,5,0.3,7.3,1.5
	c4.2,2.2,8.3,4.3,12.7,6.2c8.6,3.7,17.6,6.6,26.8,8.8c21.8,5.2,44.4,6.7,66.8,6.9c20.4,0.2,41-0.5,60.6-6.1
	c11.5-3.3,22.6-8.3,32.4-15.3c10.6-7.7,17.8-17.1,23.4-28.9c1.7-3.6,3.3-7.5,3.7-11.5c0.6-6.8-2.4-13.7-8.6-16.8
	c-0.3-0.2-0.6-0.3-1-0.4c-35.6-12.2-97-8.5-128.7-5.4c-11.9,1.1-38.3,5.6-49.5,9.2c-32.8,10.5-42.9,6.2-46.8,4.3
	c-10.8-5.1-19.5-18.3-30.5-32.9c-22.6-37.4-18.4-78,18-67.8c0.4,0.1,0.7,0.3,1.1,0.5c71.2,25.1,204.3,52.6,268-15.9
	c3.8-4.1,5.1-8.6,5.1-9.2c2.3-41-108.1-38.9-130.4-40.7c-0.2,0-0.3,0-0.5,0c-51.4,0-105.1,0.2-152.4,22.1c-1.8,0.8-4,0.8-5.7-0.2
	c-38.2-20.8-98.7-63.3-69.4-114.4c12.4-21.6,36.1-34.6,60.2-40.8c14.8-3.8,65.8-12.3,71.3,9.4c9.1,35.5,26.8,72.7,63.5,85.7
	c61.4,27.3,138.3,26.4,195.3-12c0.2-0.1,0.4-0.3,0.5-0.4C798.4,399.7,835.5,346.3,775.6,332.4z M577,807.4c0.5-0.6,1.4-1.1,2.7-1.7
	c10.1-4.2,20.7-7.6,31.5-9c9.3-1.2,18.9-1,28,1.2c8.4,2,10.1,10.1,2,14.3c-7.7,4-16.6,6.3-25.3,6.9c-9.1,0.6-18.5-0.1-27.2-2.5
	C585.4,815.7,573.3,811.3,577,807.4z M532.1,656.3c0.9-0.2,1.8-0.4,2.7-0.7c13.9-3.2,28.1-4.7,42.3-5.8c32.4-2.6,65.3-3.3,97.3,2.6
	c0.6,0.1,1.2,0.4,1.7,0.8c5.8,4.8-1.6,12.2-5.1,15.6c-3.9,3.7-8.6,6.6-13.6,8.7c-8.8,3.7-18.3,5.2-27.7,6.6
	c-29.4,4.4-59.2,7.8-88.5,0.6c-1.4-0.4-2.9-0.7-4.3-1.1c-6.1-1.7-12.1-3.9-17.9-6.6c-4.1-1.9-12.3-4.9-7.1-11.7
	c0.6-0.7,1.3-1.4,2.1-1.9C519.6,659.9,525.8,657.9,532.1,656.3z M496.6,512.7c38.3-13,151.1-17.9,201.5,1.5
	c16.2,6.2,2.2,16.5-9.7,21.1c-60,23.4-139.9,14.1-193.1-12.4C494,522.2,487.3,515.9,496.6,512.7z M768.9,404.4
	c-29.3,30.7-180.8,44.4-221.3-21c-0.1-0.1-0.2-0.2-0.3-0.3c-8.5-14.6-10.3-21.3-12-31.8c-0.6-3.9,2.2-7.5,6.2-7.8
	c9.2-0.6,22.1,0.2,30.6,0.9c0.2,0,0.4,0,0.6,0c36.2,3.3,149.8-0.3,196.7,25C783.3,376.8,780.9,391.7,768.9,404.4z"/>
</svg>
