<svg id="Ebene_1" data-name="Ebene 1" xmlns="http://www.w3.org/2000/svg" viewBox="0 0 1800.24134 583.00763"><defs><style>.cls-1{fill:#fbfbfb;}.cls-2{isolation:isolate;}</style></defs><g id="Layer_2" data-name="Layer 2"><g id="Ebene_6" data-name="Ebene 6"><path class="cls-1" d="M334.40459,188.70815c-52.7-14.3-108.3-13.1-162.7-13.8a6.902,6.902,0,0,1-6.1-4.8c-7.6-31.1-.9-118.5,4.6-144.7h0c-13.2,25.1-18,56.8-20.4,95.2a323.02837,323.02837,0,0,0,.6,48.2,5.997,5.997,0,0,1-5.3,6.5h-.3c-37.9,1.7-89,12.6-107.6,57.1l-.1.2c-14,36.5,26.9,65.6,53.4,83.6a6.02284,6.02284,0,0,1,1.6,8.2c-13.3,19.9-16.4,43-2.6,64.5a102.27191,102.27191,0,0,0,25.7,29.1c2.3,1.8,2.4,4.8,1.7,7.6-7.7,29.4-8.2,38.1,9.1,63.6,8.5,12.6,18.4,17.8,29.1,23.8l.4.2c7.5,5,15.3,4.1,7.6,14a7.01765,7.01765,0,0,0-.6.9c-20,35.2,34.5,76.7,69.2,80.3a1.9973,1.9973,0,0,0,2.2-2,2.08518,2.08518,0,0,0-1.3-2.2l-17.6-8.7h0c-18.1-12.3-40.7-28.2-41.6-50.3-1.2-22,6-20.2,21-17.2l.4.1c18.2,2.7,41.1,6.7,56.2-5.8a.09792.09792,0,0,1-.1.1c6.5-6.6,8.8-8.4,10.9-16.2,1.3-4.7-1.8-8.1-6-11.2-9.9-7.4-34.8-7.7-50.7-2.3-.4.2-8.2,3.7-13.7,6-10.7,4.5-18.3-1.8-27.2-6.2l-.5-.3a99.14184,99.14184,0,0,1-29.2-25.1l-.4-.5c-10.2-10-10.9-41.9.4-36.7l.7.4c27.1,14.5,58.5,16.1,88.5,14.7,26.7-.6,49.7-11.7,57.9-25.6,5.3-8.8,3.9-6.4,5.9-11.7,2.3-6.1.4-13-5.6-15.5-23.9-8.2-65.4-5.7-86.6-3.7-8,.8-25.8,3.8-33.4,6.2-22.1,7.1-28.9,4.1-31.6,3-7.3-3.4-13.1-12.3-20.5-22.1-15.2-25.1-12.4-52.5,12.1-45.6.3.1.4.3.7.4,47.9,16.9,137.6,35.4,180.4-10.7a12.68247,12.68247,0,0,0,3.4-6.2c1.5-27.5-72.5-26.2-87.7-27.4h-.4c-34.3,0-70.2.2-102,14.5a5.93248,5.93248,0,0,1-5.2-.2c-18.6-10.1-35.5-22.4-46.4-40.1-8.2-13.4-6.3-20.4-.4-34.9,3.9-9.4,8.7-12.8,12.6-15.7a83.73385,83.73385,0,0,1,21.5-10.9c13.4-4.3,26.1-8.8,49.3-2.2a9.36049,9.36049,0,0,1,5.8,6c6.1,23.9,18,49,42.8,57.7,41.3,18.4,93.1,17.8,131.5-8l.5-.4C349.80462,233.90815,374.70461,198.10814,334.40459,188.70815Zm-133.7,319.9c.7-1.1,17.8-7.1,25.3-7.5,7.2-.5,23.3-.4,23.9,4.6.5,4.6-11.9,10.1-22.9,10.9C212.90459,517.30816,197.90459,512.70812,200.70461,508.60814Zm-30.2-100.1c17.7-4.2,50.6-6.6,75.1-5,21,1.3,25.8,4.6,19,12.2-3.7,4.1-5.7,6.8-11.2,9.5-4.2,2-11.1,3.9-20.6,5.5-25.2,4-53.3,1.2-75.5-10.9-6-3.3-2.6-7.6,13.2-11.3Zm-23.9-98.4c25.8-8.7,101.8-12.1,135.7,1.1,10.9,4.2,1.5,11-6.5,14.2-40.4,15.8-94.2,9.4-130-8.3C144.8046,316.50814,140.40461,312.30816,146.6046,310.10814Zm183.3-73c-19.7,20.7-121.8,29.9-149-14.2l-.2-.2c-5.2-9-6.6-13.5-7.7-19.5a6.18878,6.18878,0,0,1,5-7.1,2.48278,2.48278,0,0,1,.9-.1,183.34423,183.34423,0,0,1,18.6.7h.4c24.4,2.2,100.9-.2,132.4,16.8C339.70461,218.60814,338.0046,228.70815,329.90459,237.10814Z" transform="translate(-34.26256 -25.40815)"/></g></g><g class="cls-2"><path class="cls-1" d="M654.57617,247.32812l-71.8164,185.08594h-15.665l-72.0586-185.08594h15.90625L574.80664,413.375h.48145l62.90039-166.04688Z" transform="translate(-34.26256 -25.40815)"/><path class="cls-1" d="M674.82129,247.32812h17.834V264.9209h-17.834Zm1.68652,185.08594v-129.416h14.46v129.416Z" transform="translate(-34.26256 -25.40815)"/><path class="cls-1" d="M732.419,302.99805h13.97753l.24122,24.10058h.48242c8.916-17.11133,24.09961-26.751,44.584-26.751,28.91992,0,46.03028,19.5205,46.03028,46.99414v85.07226h-14.46V350.47461c0-20.48438-10.84472-37.5957-34.70312-37.5957s-41.69238,17.834-41.69238,46.51269v73.02246h-14.46Z" transform="translate(-34.26256 -25.40815)"/><path class="cls-1" d="M869.30566,367.58594c0-37.11328,22.89454-67.23828,61.93653-67.23828,39.041,0,61.69531,30.125,61.69531,67.23828s-22.6543,67.47949-61.93652,67.47949S869.30566,404.69922,869.30566,367.58594Zm14.46.24121c0,29.64258,16.87012,54.70605,47.23536,54.70605,30.60644,0,47.47656-24.82226,47.47656-54.706s-16.62891-54.94824-47.23535-54.94824S883.76562,337.70215,883.76562,367.82715Z" transform="translate(-34.26256 -25.40815)"/><path class="cls-1" d="M1012.459,417.47266l9.15723-10.6045c11.56836,10.84473,26.26953,15.665,42.17481,15.665,24.34082,0,36.39062-10.36328,36.39062-24.582,0-15.42383-14.94141-19.03808-37.35449-24.09961-24.09961-5.30176-45.78906-11.56738-45.78906-36.14941,0-21.93067,17.833-37.35449,48.44043-37.35449,19.27929,0,34.70312,5.78418,47.47656,18.31543l-9.64063,10.36328c-11.56738-11.08594-23.376-16.14746-38.07715-16.14746-22.17187,0-33.73925,10.36328-33.73925,23.85937,0,15.42383,14.70019,18.55664,37.11328,23.61719,24.582,5.543,46.03027,12.0498,46.03027,36.63183,0,22.41309-18.55664,38.07813-50.60937,38.07813C1043.54785,435.06543,1026.19531,429.52246,1012.459,417.47266Z" transform="translate(-34.26256 -25.40815)"/><path class="cls-1" d="M1145.97168,247.32812h14.46v79.5293h.48242c8.917-16.87012,23.8584-26.50976,44.34375-26.50976,28.91895,0,46.03028,19.5205,46.03028,46.99414v85.07226h-14.46V350.47461c0-20.48438-10.84472-37.5957-34.7041-37.5957-23.8584,0-41.69238,17.834-41.69238,46.51269v73.02246h-14.46Z" transform="translate(-34.26256 -25.40815)"/><path class="cls-1" d="M1282.8584,367.58594c0-37.11328,22.89551-67.23828,61.93652-67.23828,39.042,0,61.69531,30.125,61.69531,67.23828s-22.65332,67.47949-61.93652,67.47949C1305.27148,435.06543,1282.8584,404.69922,1282.8584,367.58594Zm14.46.24121c0,29.64258,16.87012,54.70605,47.23535,54.70605,30.60742,0,47.47656-24.82226,47.47656-54.706s-16.6289-54.94824-47.23535-54.94824S1297.31836,337.70215,1297.31836,367.82715Z" transform="translate(-34.26256 -25.40815)"/><path class="cls-1" d="M1453.48535,407.5918h-.48242v68.9248h-14.46V302.99805h13.97851l.24122,26.02832h.48144c10.12207-18.0752,27.71484-28.67871,47.47656-28.67871,35.667,0,56.63379,30.125,56.63379,67.23828,0,36.14941-21.44824,67.47949-57.59765,67.47949C1479.27148,435.06543,1463.84766,425.666,1453.48535,407.5918Zm89.40918-39.52442c0-29.40136-15.42383-54.94726-45.30664-54.94726-29.40234,0-45.06641,25.5459-45.06641,55.18847,0,30.125,15.90528,53.9834,44.8252,53.9834C1526.50684,422.292,1542.89453,397.95117,1542.89453,368.06738Z" transform="translate(-34.26256 -25.40815)"/><path class="cls-1" d="M1584.83105,413.61621h18.79786v18.79785h-18.79786Z" transform="translate(-34.26256 -25.40815)"/><path class="cls-1" d="M1723.16211,432.41406l-.24121-23.13574h-.48242c-10.36231,18.31543-26.02735,25.78711-43.1377,25.78711-25.5459,0-40.24707-15.42383-40.24707-36.873,0-21.44824,14.46-31.57031,33.25781-35.42676,13.73633-2.8916,36.39063-4.09667,50.60938-4.5791V341.31738c0-13.49609-10.60352-28.43847-34.46289-28.43847-20.00293,0-30.36524,10.12207-34.22168,22.8955l-12.77246-4.82031c6.02441-18.79785,22.89453-30.60644,47.47656-30.60644,30.60645,0,48.19922,16.6289,48.19922,42.1748v89.8916Zm-.24121-51.332V369.99609a301.30916,301.30916,0,0,0-42.17481,3.85547c-17.59277,3.13282-27.23242,9.15821-27.23242,23.61817,0,15.18261,10.84473,25.06347,27.71485,25.06347C1705.80957,422.5332,1722.9209,401.56641,1722.9209,381.082Z" transform="translate(-34.26256 -25.40815)"/><path class="cls-1" d="M1757.626,302.99805h28.67871V262.0293h14.46v40.96875h33.73926v12.291h-33.73926v82.66211c0,14.94238,6.50683,23.85938,24.58105,23.85938a60.94661,60.94661,0,0,0,9.15821-.72364v11.80957a64.82781,64.82781,0,0,1-13.73731,1.44532c-23.61719,0-34.46191-11.8086-34.46191-34.70313V315.28906H1757.626Z" transform="translate(-34.26256 -25.40815)"/></g></svg>