<svg xmlns="http://www.w3.org/2000/svg" width="36.741" height="25.748" viewBox="0 0 36.741 25.748">
    <g id="g2913_00000120536883793648791090000001233496225868308890_" transform="translate(0 0)">
        <path id="path2889_00000053531558359180466090000015518195384199879045_" d="M-306.4,55.1a15.12,15.12,0,0,1,4.753.889c-1.341.5-2.362,1.093-3.514,1.633l.919-3.82a26.665,26.665,0,0,1,1.91,4.461A29,29,0,0,0-306.4,55.1Z" transform="translate(317.612 -53.654)" fill="#fff"/>
        <path id="path2891_00000116230330762269895320000008879427532907759535_" d="M-256.1,53.864l3.776,1.37-2.945,1.385c.292-1.239.6-2.508,1.006-3.82.423,1.6.875,3.266,1.181,4.826C-254.044,56.27-255.079,55.1-256.1,53.864Z" transform="translate(274.645 -52.8)" fill="#fff"/>
        <path id="path2893_00000010268802902236735850000012619664795155272117_" d="M-204.8,61.014a11.929,11.929,0,0,0,3.455,0c-.962.86-1.925,1.706-2.945,2.508.452-1.283.875-2.6,1.254-3.922.277,1.312.539,2.639.816,3.951A26.09,26.09,0,0,1-204.8,61.014Z" transform="translate(230.825 -58.609)" fill="#fff"/>
        <path id="path2895_00000151542132334001258560000001550177795929990826_" d="M-152.9,57.566a26.838,26.838,0,0,0,3.149-1.458q-1.29,1.684-2.581,3.193c.292-1.152.7-2.362,1.079-3.6a18.8,18.8,0,0,0,.9,2.449A7.994,7.994,0,0,1-152.9,57.566Z" transform="translate(186.492 -55.277)" fill="#fff"/>
        <path id="path2897_00000139998958043358883150000013602692423934455954_" d="M-175.1,101.8a22.4,22.4,0,0,0,3.864-1.181c-1.093,1.123-2.391,2.654-3.3,3.368l1.4-4.082c.321,1.137.685,2.216,1.064,3.3A10.74,10.74,0,0,1-175.1,101.8Z" transform="translate(205.455 -93.033)" fill="#fff"/>
        <path id="path2899_00000118355383172832953110000003202719805404827790_" d="M-201.2,141.679a12.449,12.449,0,0,0,4.155.481,11.422,11.422,0,0,1-3.251,2c.394-1.152.773-2.3,1.108-3.557a31.73,31.73,0,0,0,1.473,3.791A19.885,19.885,0,0,1-201.2,141.679Z" transform="translate(227.75 -127.799)" fill="#fff"/>
        <path id="path2901_00000106864570041204181380000017965029831349841574_" d="M-229.2,166.956a18.772,18.772,0,0,0,3.922,1.385c-1.006.437-2,.875-3.062,1.254.292-1.123.569-2.172.919-3.3a31.7,31.7,0,0,0,1.545,4.111A19.767,19.767,0,0,1-229.2,166.956Z" transform="translate(251.667 -149.752)" fill="#fff"/>
        <path id="path2903_00000183943130037620361140000018437182851848789404_" d="M-265.9,179.6a28.8,28.8,0,0,1,4.024,1.589,22.2,22.2,0,0,0-3.266,1.662A43.14,43.14,0,0,0-263.9,178.7c.408,1.6.962,3.3,1.356,4.928C-263.363,182.68-264.792,180.843-265.9,179.6Z" transform="translate(283.017 -160.344)" fill="#fff"/>
        <path id="path2905_00000134251529047535589020000010511728328705391246_" d="M-320.8,179.045a19.037,19.037,0,0,1,4.52-.248c-1.429,1.268-2.581,2.362-3.834,3.528.583-1.837,1.181-3.674,1.764-5.526.364,1.735.685,3.572.991,5.438A32.194,32.194,0,0,0-320.8,179.045Z" transform="translate(329.912 -158.721)" fill="#fff"/>
        <path id="path2907_00000085938591852820102570000007088345946097736629_" d="M-340,86.252a13.205,13.205,0,0,1,5.088-.408l-3.82,2.508c.408-1.312.816-2.639,1.283-3.951.714,1.283,1.37,2.566,1.91,3.791A16.185,16.185,0,0,0-340,86.252Z" transform="translate(346.313 -79.793)" fill="#fff"/>
        <path id="path2909_00000097493875535762523200000005917951806298203316_" d="M-362.9,130.56a11.761,11.761,0,0,1,5.088-1.531l-4.082,3.98,1.648-5.409a26.575,26.575,0,0,1,1.545,4.418A18.308,18.308,0,0,0-362.9,130.56Z" transform="translate(365.874 -116.694)" fill="#fff"/>
        <path id="path2911_00000058584797319290440960000014713517087257398405_" d="M-383.3,129.672c.948-.335,2.61-1.647,3.616-1.925,2.8-4.8,14.026-11.431,19.26-11.955.146-.015.131.087,0,.131-5.482,1.6-14.682,6.6-18.123,12.057a27.32,27.32,0,0,1-3.572,4.374c.539-2.1,1.108-4.2,1.837-6.371a52.111,52.111,0,0,1,1.633,5.045A12.694,12.694,0,0,0-383.3,129.672Z" transform="translate(383.3 -106.606)" fill="#fff"/>
    </g>
</svg>
